<svg width="32" height="31" viewBox="0 0 32 31" fill="none" xmlns="http://www.w3.org/2000/svg">
<path d="M31.2749 3.84283C27.4022 3.84283 21.9311 4.16687 19.1352 6.96129C17.9247 8.1718 17.3202 10.1451 17.4771 12.3787C17.4975 12.6737 17.6937 12.9251 17.9756 13.0181C18.256 13.1097 18.5641 13.0239 18.7559 12.7987C20.3108 10.9692 22.2435 9.50294 24.5046 8.44066C24.6964 8.34911 24.9231 8.34182 25.1295 8.4145C25.3111 8.47989 25.4535 8.60339 25.5276 8.76183C25.6816 9.08736 25.6322 9.51602 25.1207 9.75722C25.0917 9.77173 25.0655 9.79066 25.0365 9.80374C25.0263 9.8081 25.0147 9.80667 25.006 9.81103C19.4346 12.4296 16.6954 16.9984 15.4514 21.6964C14.5446 15.814 12.6294 12.3511 10.8202 10.2252C9.51095 8.52791 8.22341 7.62836 7.47943 7.1198C7.34136 7.02532 6.92435 6.74053 6.7514 6.56758C6.46803 6.28421 6.46803 5.82354 6.7514 5.54017C7.03477 5.25823 7.49687 5.25823 7.81218 5.57212C7.88923 5.64044 8.01272 5.72763 8.16966 5.83226L8.29902 5.91945C9.35108 6.64019 11.31 7.97855 13.0479 10.8602C13.2034 11.1174 13.5042 11.2554 13.7963 11.2002C14.0928 11.1479 14.3252 10.9198 14.3834 10.6248C14.7627 8.68771 14.5927 5.81332 12.8649 4.08553C10.069 1.29254 4.59789 0.968506 0.726671 0.968506C0.32553 0.968438 0 1.29397 0 1.69504C0 5.56769 0.324032 11.0388 3.11846 13.8348C4.28387 15.0002 6.08147 15.5233 7.86736 15.5233C9.32486 15.5233 10.7533 15.1585 11.8476 14.5264C13.3399 17.6187 14.5316 22.2383 14.5316 29.3051C14.5316 29.7061 14.8571 30.0317 15.2582 30.0317C15.6592 30.0317 15.9848 29.7061 15.9848 29.3051C15.9848 25.3627 16.6605 20.6311 19.173 16.7367C20.18 17.7205 21.9137 18.3439 23.8347 18.402C23.9306 18.4049 24.0251 18.4064 24.1195 18.4064C26.0711 18.4064 27.796 17.7946 28.8815 16.7076C31.6773 13.9117 31.9999 8.44059 31.9999 4.56787C32.0015 4.16687 31.6774 3.84283 31.2749 3.84283Z" fill="#00B307"/>
</svg>
